<svg width="85" height="85" viewBox="0 0 85 85" fill="none" xmlns="http://www.w3.org/2000/svg">
<circle cx="42.5" cy="42.5" r="42" stroke="white"/>
<path d="M60.0765 42.0068C60.0768 40.9762 59.9877 39.9474 59.8109 38.932L58.3486 39.1875C59.4372 45.4263 56.8201 51.7317 51.6337 55.3657L50.4382 53.4139C50.0338 52.7594 49.9986 51.9419 50.3447 51.2548L50.6821 50.5804C50.8071 50.3286 51.0644 50.1695 51.3456 50.1706H52.3922C53.3036 50.1735 54.124 49.6183 54.4599 48.7711L55.4641 46.2594C55.5699 45.9967 55.6243 45.7155 55.6235 45.4321V43.7992C55.6246 43.4053 55.4681 43.027 55.1887 42.749L54.2979 41.8586C53.8464 41.4064 53.1561 41.2944 52.5842 41.5803L50.7578 42.4939C50.5491 42.5983 50.3034 42.5983 50.0943 42.4939L47.1257 41.0096C46.8749 40.8842 46.7169 40.6276 46.7176 40.3475V38.2961C46.7176 37.4763 46.053 36.8117 45.2333 36.8117C44.8235 36.8117 44.4912 36.4794 44.4912 36.0696V35.3274C44.4912 35.0941 44.6013 34.8741 44.788 34.7338L47.163 32.9527L46.2723 31.7652L43.8976 33.5463C43.3384 33.9681 43.0087 34.6273 43.0069 35.3274V36.0696C43.0069 37.2991 44.0038 38.2961 45.2333 38.2961V40.3475C45.2304 41.1915 45.7077 41.9637 46.464 42.3388L49.4326 43.8231C50.0599 44.1351 50.797 44.1351 51.4243 43.8231L53.251 42.9103L54.1414 43.8006V45.4335C54.1418 45.5278 54.1233 45.6212 54.0881 45.7089L53.0832 48.221C52.9716 48.5036 52.698 48.6888 52.3943 48.6877H51.3478C50.5038 48.6848 49.7316 49.1621 49.3569 49.9184L49.0191 50.5931C48.4422 51.7379 48.5009 53.1004 49.1742 54.1916L50.3839 56.1666C45.812 58.7985 40.2477 59.05 35.457 56.842L36.3677 56.234C36.4887 56.1528 36.6311 56.1089 36.7771 56.1079H38.6807C39.2718 56.1097 39.8389 55.8748 40.2557 55.4556L42.3546 53.3567C42.7735 52.9399 43.0087 52.3728 43.0069 51.7817V48.354C43.0069 47.9517 42.8978 47.5571 42.6916 47.2117L41.1062 44.5606C40.7007 43.8985 39.9806 43.4937 39.204 43.4912H37.1214C36.376 43.4904 35.6795 43.8626 35.266 44.4826L34.4459 45.7176H32.6166C31.7969 45.7176 31.1323 46.3822 31.1323 47.202V48.6196C31.1323 48.8715 31.0044 49.1063 30.7924 49.2429L28.4768 50.7363C26.816 48.1278 25.9347 45.0991 25.9372 42.0068C25.9372 41.7583 25.9445 41.5111 25.9557 41.2647H27.2465C27.5277 41.264 27.785 41.4231 27.91 41.6753L28.779 43.4169C29.0302 43.9195 29.5447 44.2359 30.1068 44.2333H30.8903C31.3566 44.234 31.7962 44.0159 32.0771 43.6437C32.3583 43.2716 32.4481 42.7892 32.3199 42.341L31.3744 39.0382H32.8391C33.345 39.0382 33.8353 38.8661 34.23 38.5501L36.6525 36.6121C37.4327 35.9859 37.7005 34.9168 37.3077 33.9968L36.0372 31.0281C35.8908 30.6868 36.0194 30.29 36.3379 30.099L38.2067 28.9778C38.884 28.5694 39.2953 27.833 39.2877 27.0419L39.2754 25.9562C41.6689 25.5069 44.1331 25.5996 46.4861 26.228L46.8662 24.797C39.4954 22.826 31.6879 25.7682 27.4513 32.1135C23.2147 38.4588 23.4897 46.7975 28.1354 52.8497C32.7812 58.9022 40.7655 61.3233 47.9903 58.8707C55.2151 56.4181 60.0754 49.6364 60.0765 42.0068ZM37.7933 26.3074L37.802 27.0629C37.8052 27.3268 37.6679 27.5721 37.4414 27.7076L35.5719 28.8292C34.6203 29.405 34.2365 30.5929 34.6717 31.6166L35.9422 34.5853C36.0738 34.8918 35.9846 35.2488 35.7241 35.4575L33.3015 37.3952C33.17 37.4988 33.0069 37.5546 32.8391 37.5539H31.3744C30.908 37.5532 30.4684 37.7717 30.1876 38.1439C29.9064 38.5157 29.8165 38.9984 29.9448 39.4466L30.8903 42.749H30.1068L29.2374 41.011C28.8627 40.2547 28.0905 39.7775 27.2465 39.7804H26.093C26.9867 33.3713 31.5726 28.0907 37.7933 26.3074ZM29.3288 51.9517L31.5969 50.4898C32.2336 50.0811 32.6177 49.3759 32.6166 48.6196V47.202H34.4459C34.9424 47.202 35.4059 46.9537 35.6809 46.5406L36.5039 45.306C36.6416 45.0994 36.8735 44.9755 37.1214 44.9755H39.204C39.4609 44.9758 39.6998 45.1088 39.8349 45.3274L41.4171 47.9738C41.4863 48.0887 41.5225 48.2199 41.5225 48.354V51.7817C41.5225 51.9789 41.4446 52.168 41.3051 52.3072L39.2062 54.4061C39.067 54.5456 38.8779 54.6239 38.6807 54.6235H36.7771C36.3372 54.6235 35.9067 54.754 35.5407 54.9982L33.9578 56.0553C32.1695 54.9924 30.5985 53.5998 29.3288 51.9517Z" fill="white"/>
<path d="M21.5347 42.7291L20.0543 42.8324C20.0891 43.3347 20.1417 43.8431 20.2109 44.3424L21.6818 44.1391C21.6173 43.6731 21.5673 43.1944 21.5347 42.7291Z" fill="white"/>
<path d="M23.7851 31.7482L22.4664 31.0669C22.2348 31.5119 22.0156 31.9776 21.8152 32.4421L23.1781 33.0306C23.3665 32.5972 23.5713 32.166 23.7851 31.7482Z" fill="white"/>
<path d="M21.9235 45.5358L20.4703 45.8409C20.5743 46.3359 20.6932 46.8316 20.8327 47.3165L22.2605 46.9135C22.1337 46.4598 22.0202 45.9982 21.9235 45.5358Z" fill="white"/>
<path d="M21.9051 37.0835L20.4505 36.7867C20.3504 37.2785 20.2649 37.7833 20.1982 38.2848L21.6691 38.4816C21.7315 38.0134 21.8108 37.5427 21.9051 37.0835Z" fill="white"/>
<path d="M25.2567 29.3229L24.0424 28.468C23.7532 28.8797 23.4734 29.308 23.2114 29.7407L24.4805 30.5104C24.7255 30.1056 24.9867 29.7066 25.2567 29.3229Z" fill="white"/>
<path d="M22.6613 34.3516L21.2618 33.8588C21.0933 34.3375 20.9404 34.8238 20.8059 35.309L22.237 35.7047C22.3609 35.2532 22.504 34.7984 22.6613 34.3516Z" fill="white"/>
<path d="M21.5296 39.8924L20.0453 39.796C20.0152 40.2805 20 40.7701 20 41.2648V41.3122L21.4843 41.2648C21.4843 40.8042 21.4995 40.3468 21.5296 39.8924Z" fill="white"/>
<path d="M22.6918 48.2642L21.2952 48.7642C21.4658 49.2408 21.6536 49.7151 21.8547 50.1743L23.2151 49.5807C23.0274 49.1509 22.8512 48.7088 22.6918 48.2642Z" fill="white"/>
<path d="M27.0422 27.1185L25.9551 26.1085C25.6115 26.4796 25.276 26.8648 24.9592 27.2551L26.1123 28.1904C26.4077 27.8251 26.7211 27.4646 27.0422 27.1185Z" fill="white"/>
<path d="M39.3704 20.6855L39.1624 19.2146C38.6652 19.2838 38.1615 19.3719 37.6658 19.4759L37.9705 20.9298C38.4329 20.8312 38.9037 20.7493 39.3704 20.6855Z" fill="white"/>
<path d="M42.1967 20.4843L42.1905 19C41.6828 19 41.1722 19.0203 40.6729 19.0558L40.7783 20.5401C41.2469 20.5028 41.7194 20.4843 42.1967 20.4843Z" fill="white"/>
<path d="M36.5931 21.2681L36.1902 19.8396C35.7071 19.9759 35.2193 20.1317 34.7432 20.3034L35.2447 21.7001C35.6893 21.5406 36.1427 21.3957 36.5931 21.2681Z" fill="white"/>
<path d="M29.1091 25.1787L28.1695 24.0299C27.7792 24.3488 27.3947 24.6858 27.0276 25.0308L28.0433 26.1129C28.3862 25.7907 28.7456 25.4762 29.1091 25.1787Z" fill="white"/>
<path d="M33.9288 22.2242L33.3349 20.8645C32.8758 21.0656 32.4155 21.2867 31.9666 21.5211L32.6536 22.8362C33.0707 22.6173 33.4998 22.414 33.9288 22.2242Z" fill="white"/>
<path d="M31.419 23.5356L30.6424 22.2701C30.2119 22.5343 29.7861 22.8163 29.3762 23.108L30.2365 24.3176C30.6196 24.0469 31.0167 23.7816 31.419 23.5356Z" fill="white"/>
<path d="M50.5582 60.3241L51.1522 61.6845C51.6146 61.4834 52.0744 61.2631 52.5212 61.0308L51.8385 59.7139C51.42 59.9306 50.9895 60.1364 50.5582 60.3241Z" fill="white"/>
<path d="M57.4551 55.4444L58.5404 56.4583C58.8847 56.0873 59.221 55.7042 59.5391 55.3132L58.3882 54.3757C58.0907 54.741 57.7758 55.1009 57.4551 55.4444Z" fill="white"/>
<path d="M55.3848 57.3809L56.3226 58.5311C56.7129 58.2126 57.0974 57.8766 57.4663 57.5327L56.4534 56.4478C56.1074 56.771 55.7511 57.0819 55.3848 57.3809Z" fill="white"/>
<path d="M59.2467 53.2447L60.4589 54.1043C60.7499 53.6923 61.0311 53.2654 61.2931 52.8334L60.0255 52.0619C59.7798 52.4609 59.5185 52.8602 59.2467 53.2447Z" fill="white"/>
<path d="M53.0714 59.0178L53.8426 60.2847C54.2716 60.0227 54.6981 59.7422 55.1109 59.4505L54.2528 58.2394C53.8708 58.5119 53.4715 58.7739 53.0714 59.0178Z" fill="white"/>
<path d="M47.8918 61.274L48.2926 62.7036C48.7771 62.5677 49.2649 62.4126 49.7407 62.2434L49.241 60.8453C48.7956 61.0062 48.3437 61.1479 47.8918 61.274Z" fill="white"/>
<path d="M62.9977 42.6831L64.4784 42.7824C64.5124 42.2794 64.5295 41.7688 64.5295 41.2648H63.0452C63.0452 41.7413 63.0292 42.2142 62.9977 42.6831Z" fill="white"/>
<path d="M62.6154 45.4908L64.0692 45.7876C64.1711 45.2955 64.2569 44.7907 64.3254 44.2899L62.8545 44.0902C62.7907 44.5613 62.7103 45.0313 62.6154 45.4908Z" fill="white"/>
<path d="M61.8533 48.2203L63.2513 48.7168C63.4213 48.2388 63.5757 47.7521 63.7108 47.268L62.2809 46.869C62.1544 47.3195 62.0105 47.7742 61.8533 48.2203Z" fill="white"/>
<path d="M60.7216 50.8221L62.0395 51.506C62.2718 51.0606 62.4914 50.5967 62.6926 50.1329L61.3314 49.5389C61.1437 49.9731 60.9383 50.4043 60.7216 50.8221Z" fill="white"/>
<path d="M23.8257 50.8573L22.5099 51.5444C22.7436 51.9897 22.9955 52.4351 23.2575 52.8645L24.5273 52.0905C24.2794 51.6908 24.0449 51.2759 23.8257 50.8573Z" fill="white"/>
<path d="M28.238 58.5573C28.6312 58.8769 29.0389 59.1856 29.4491 59.4752L30.3025 58.2601C29.9162 57.9872 29.539 57.7017 29.1708 57.4038L28.238 58.5573Z" fill="white"/>
<path d="M33.4191 61.703C33.88 61.9027 34.3565 62.0904 34.836 62.2604L35.331 60.8608C34.8856 60.7018 34.4403 60.5275 34.0105 60.3412L33.4191 61.703Z" fill="white"/>
<path d="M30.7189 60.3057C31.1523 60.5691 31.5984 60.8192 32.0452 61.0478L32.7272 59.7287C32.3101 59.5135 31.8944 59.2798 31.4893 59.0341L30.7189 60.3057Z" fill="white"/>
<path d="M26.0116 56.4844C26.358 56.8555 26.7204 57.2153 27.0868 57.5574L28.0993 56.471C27.7565 56.1517 27.418 55.8147 27.0944 55.4697L26.0116 56.4844Z" fill="white"/>
<path d="M25.3042 53.2751L24.0931 54.1329C24.3849 54.5442 24.6943 54.9493 25.0132 55.3414L26.1598 54.4011C25.863 54.0372 25.576 53.6589 25.3042 53.2751Z" fill="white"/>
<path d="M45.1167 61.851L45.3178 63.3212C45.8161 63.2527 46.3198 63.1668 46.8155 63.0635L46.5144 61.6104C46.0498 61.706 45.5816 61.7872 45.1167 61.851Z" fill="white"/>
<path d="M39.2599 63.3284C39.7564 63.3954 40.2648 63.4465 40.7714 63.4769L40.8703 61.9926C40.396 61.9615 39.9216 61.9133 39.4603 61.851L39.2599 63.3284Z" fill="white"/>
<path d="M42.2869 62.0452V63.5295C42.7953 63.5295 43.3059 63.5118 43.8056 63.477L43.7038 61.9927C43.2363 62.0278 42.7641 62.0452 42.2869 62.0452Z" fill="white"/>
<path d="M36.2852 62.717C36.7729 62.8525 37.2701 62.9728 37.7622 63.0739L38.059 61.62C37.5995 61.5258 37.1357 61.4135 36.6816 61.2874L36.2852 62.717Z" fill="white"/>
<path d="M48.3507 25.263L47.9238 32.5215C47.8618 33.5796 48.255 34.6139 49.0044 35.364L50.4441 36.8023L53.0645 29.9841L55.7135 32.6327V35.9087C55.7124 36.4982 55.9473 37.0643 56.3658 37.4796L57.6526 38.7675L59.2268 36.1438L59.6044 36.5207C60.1636 37.0998 60.9913 37.3317 61.77 37.1281C62.5484 36.9244 63.1561 36.3163 63.3601 35.5379C63.5638 34.7595 63.3315 33.9315 62.7528 33.3727L62.3759 32.9955L64.9999 31.4209L63.7131 30.1323C63.2967 29.713 62.73 29.4782 62.1389 29.48H58.8615L56.2172 26.8321L63.0394 24.2084L61.5964 22.768C60.8474 22.0178 59.8128 21.625 58.755 21.6881L51.4965 22.115L49.1091 19.7265C48.2278 18.8858 46.8413 18.8858 45.96 19.7265C45.0903 20.5962 45.0903 22.0059 45.96 22.8756L48.3507 25.263ZM49.8839 34.1228C49.544 33.6938 49.3737 33.1545 49.4052 32.6081L49.7545 26.6708L51.9187 28.835L49.8839 34.1228ZM57.3602 36.3663C57.2555 36.2344 57.1982 36.071 57.1978 35.9025V34.1134L58.1469 35.061L57.3602 36.3663ZM62.1382 30.9621C62.3067 30.9625 62.4701 31.0198 62.602 31.1245L61.2946 31.9134L60.3466 30.9665L62.1382 30.9621ZM58.8416 23.1695C59.3881 23.1372 59.9277 23.3079 60.3564 23.6482L55.0656 25.683L52.9014 23.5188L58.8416 23.1695ZM47.0102 20.7767C47.2998 20.4875 47.769 20.4875 48.0589 20.7767L61.7033 34.4214C61.9925 34.711 61.9925 35.1803 61.7033 35.4698C61.4098 35.7507 60.9474 35.7507 60.6539 35.4698L47.0102 21.8254C46.721 21.5355 46.721 21.0666 47.0102 20.7767Z" fill="white"/>
</svg>
